<svg width="788" height="720" xmlns="http://www.w3.org/2000/svg" xmlns:xlink="http://www.w3.org/1999/xlink" xml:space="preserve" overflow="hidden"><g transform="translate(-246 0)"><path d="M443.233 338.694 437.228 391.642C437.22 391.984 436.954 392.32 436.608 392.483L387.874 413.729C387.528 413.891 387.187 413.797 386.849 413.618L344.121 381.914C343.868 381.737 343.707 381.305 343.716 380.962L349.721 328.014C349.729 327.672 349.994 327.335 350.34 327.173L399.074 305.927C399.421 305.765 399.761 305.859 400.099 306.038L442.828 337.742C443.081 337.919 443.245 338.18 443.237 338.522 443.237 338.522 443.235 338.608 443.233 338.694ZM351.67 328.832 345.78 380.585 387.584 411.581 435.278 390.824 441.168 339.071 399.365 308.075 351.67 328.832Z" fill="#FFFFFF" transform="matrix(1.00046 0 0 1 246 0)"/><path d="M444.233 332.809 442.762 389.465C442.754 389.808 442.574 390.146 442.227 390.309L392.496 417.353C392.149 417.515 391.807 417.508 391.469 417.328L343.208 387.715C342.87 387.536 342.707 387.19 342.715 386.847L344.187 330.191C344.195 329.848 344.374 329.51 344.721 329.347L394.453 302.303C394.799 302.141 395.141 302.149 395.479 302.328L443.741 331.941C443.993 332.118 444.158 332.379 444.235 332.723 444.149 332.721 444.235 332.723 444.233 332.809ZM346.228 330.755 344.786 386.213 392.034 415.2 440.725 388.731 442.166 333.272 394.918 304.284 346.228 330.755Z" fill="#FFFFFF" transform="matrix(1.00046 0 0 1 246 0)"/><path d="M447.861 387.531 397.634 420.816C397.374 420.98 396.943 421.055 396.605 420.876L342.712 393.952C342.374 393.772 342.21 393.511 342.134 393.081L338.469 332.874C338.477 332.531 338.656 332.193 338.92 331.943L389.147 298.66C389.407 298.494 389.838 298.419 390.176 298.599L444.069 325.522C444.407 325.702 444.571 325.963 444.647 326.393L448.313 386.601C448.302 387.029 448.208 387.369 447.861 387.531ZM389.867 300.732 340.683 333.357 344.293 392.363 397.086 418.746 446.269 386.122 442.66 327.115 389.867 300.732Z" fill="#FFFFFF" transform="matrix(1.00046 0 0 1 246 0)"/><path d="M453.684 384.079 403.552 423.959C403.289 424.209 402.861 424.199 402.521 424.106L342.979 400.555C342.639 400.46 342.39 400.112 342.313 399.768L332.817 336.334C332.74 335.99 332.919 335.652 333.183 335.402L383.314 295.521C383.577 295.271 384.005 295.281 384.346 295.376L443.887 318.926C444.227 319.02 444.475 319.368 444.553 319.713L454.049 383.146 454.047 383.232C454.038 383.574 453.945 383.914 453.684 384.079ZM384.208 297.512 335.034 336.731 344.3 399.045 402.826 422.143 451.999 382.924 442.732 320.611 384.208 297.512Z" fill="#FFFFFF" transform="matrix(1.00046 0 0 1 246 0)"/><path d="M459.437 379.94 410.076 426.862C409.813 427.112 409.469 427.189 409.128 427.095L343.833 407.686C343.492 407.592 343.242 407.329 343.165 406.985L327.231 340.653C327.154 340.309 327.248 339.969 327.511 339.718L376.872 292.797C377.135 292.547 377.48 292.47 377.82 292.563L443.116 311.973C443.456 312.066 443.707 312.33 443.784 312.674L459.717 379.005C459.715 379.091 459.715 379.091 459.713 379.176 459.792 379.435 459.698 379.776 459.437 379.94ZM377.858 294.534 329.285 340.704 344.904 405.914 409.093 425.04 457.665 378.869 442.047 313.66 377.858 294.534Z" fill="#FFFFFF" transform="matrix(1.00046 0 0 1 246 0)"/><path d="M465.212 374.94 417.211 429.26C416.948 429.51 416.602 429.673 416.261 429.579L345.279 415.083C344.939 414.989 344.603 414.724 344.526 414.379L321.545 345.564C321.468 345.22 321.476 344.877 321.742 344.541L369.742 290.222C370.006 289.972 370.352 289.808 370.692 289.902L441.674 304.398C442.014 304.492 442.351 304.758 442.428 305.102L465.409 373.917C465.406 374.003 465.49 374.091 465.488 374.177 465.48 374.518 465.387 374.773 465.212 374.94ZM370.811 292.046 323.601 345.529 346.267 413.224 416.14 427.521 463.35 374.038 440.686 306.259 370.811 292.046Z" fill="#FFFFFF" transform="matrix(1.00046 0 0 1 246 0)"/><path d="M470.919 369.17 425.042 431.164C424.864 431.416 424.518 431.579 424.09 431.569L347.489 422.758C347.146 422.75 346.81 422.485 346.647 422.138L315.836 351.333C315.673 350.986 315.768 350.646 315.946 350.308L361.824 288.314C362.001 288.062 362.348 287.899 362.776 287.909L439.377 296.72C439.72 296.728 440.055 296.993 440.218 297.339L471.029 368.145C471.113 368.232 471.109 368.404 471.106 368.489 471.1 368.746 471.008 369 470.919 369.17ZM363.151 290.06 317.982 351.128 348.305 420.894 423.796 429.591 468.965 368.523 438.642 298.757 363.151 290.06Z" fill="#FFFFFF" transform="matrix(1.00046 0 0 1 246 0)"/><path d="M476.305 362.538 433.489 432.485C433.309 432.823 432.962 432.985 432.62 432.977L350.634 430.715C350.292 430.707 349.953 430.527 349.791 430.181L310.621 357.972C310.459 357.626 310.467 357.284 310.647 356.945L353.464 286.998C353.643 286.66 353.99 286.497 354.332 286.506L436.317 288.768C436.66 288.777 436.998 288.955 437.162 289.302L476.33 361.511C476.411 361.684 476.41 361.77 476.491 361.943 476.485 362.199 476.481 362.371 476.305 362.538ZM354.796 288.573 312.601 357.593 351.196 428.76 432.069 430.994 474.263 361.974 435.669 290.807 354.796 288.573Z" fill="#FFFFFF" transform="matrix(1.00046 0 0 1 246 0)"/><path d="M481.457 354.955 442.55 433.133C442.37 433.471 442.11 433.636 441.679 433.711L354.543 438.945C354.201 438.937 353.863 438.757 353.612 438.495L305.469 365.552C305.305 365.292 305.229 364.861 305.408 364.523L344.314 286.431C344.494 286.093 344.755 285.927 345.185 285.853L432.321 280.619C432.664 280.627 433.002 280.807 433.252 281.07L481.483 353.928C481.564 354.101 481.646 354.274 481.641 354.445 481.635 354.702 481.546 354.872 481.457 354.955ZM345.906 287.84 307.54 364.918 355.109 436.818 441.045 431.64 479.412 354.563 431.842 282.662 345.906 287.84Z" fill="#FFFFFF" transform="matrix(1.00046 0 0 1 246 0)"/><path d="M486.202 346.51 452.231 432.944C452.137 433.284 451.788 433.532 451.443 433.61L359.564 447.206C359.22 447.284 358.882 447.104 358.631 446.841L300.806 374.09C300.556 373.827 300.566 373.399 300.66 373.059L334.631 286.625C334.726 286.284 335.074 286.036 335.418 285.959L427.298 272.363C427.642 272.286 427.98 272.465 428.231 272.728L486.056 345.478C486.223 345.654 486.218 345.825 486.298 346.084 486.294 346.255 486.289 346.426 486.202 346.51ZM336.312 287.95 302.796 373.283 359.957 445.16 450.634 431.706 484.15 346.374 426.989 274.496 336.312 287.95Z" fill="#FFFFFF" transform="matrix(1.00046 0 0 1 246 0)"/><path d="M490.457 337.106 462.45 431.821C462.356 432.162 462.093 432.412 461.749 432.49L365.699 455.489C365.355 455.567 365.014 455.472 364.764 455.21L296.723 383.494C296.472 383.231 296.395 382.887 296.489 382.546L324.497 287.831C324.591 287.49 324.854 287.24 325.199 287.163L421.247 264.162C421.591 264.085 421.932 264.179 422.182 264.442L490.223 336.158C490.39 336.333 490.47 336.592 490.466 336.763 490.549 336.851 490.545 337.023 490.457 337.106ZM326.184 288.899 298.546 382.511 365.835 453.437 460.763 430.753 488.401 337.142 421.112 266.214 326.184 288.899Z" fill="#FFFFFF" transform="matrix(1.00046 0 0 1 246 0)"/><path d="M494.137 326.746 473.208 429.685C473.114 430.026 472.848 430.361 472.504 430.438L372.864 463.713C372.519 463.79 372.178 463.782 371.841 463.517L293.047 393.765C292.797 393.502 292.634 393.155 292.728 392.815L313.657 289.876C313.751 289.536 314.017 289.199 314.361 289.122L414.001 255.848C414.345 255.771 414.687 255.779 415.024 256.044L493.817 325.797C493.984 325.972 494.149 326.233 494.143 326.49 494.141 326.575 494.139 326.661 494.137 326.746ZM315.518 290.864 294.872 392.696 372.829 461.657 471.431 428.785 492.077 326.953 414.12 257.992 315.518 290.864Z" fill="#FFFFFF" transform="matrix(1.00046 0 0 1 246 0)"/><path d="M496.982 315.43 484.417 426.538C484.408 426.88 484.143 427.217 483.797 427.38L381.228 471.887C380.881 472.049 380.541 471.955 380.203 471.776L290.199 405.175C289.946 404.998 289.783 404.651 289.794 404.223L302.53 293.12C302.539 292.777 302.804 292.441 303.15 292.278L405.72 247.772C406.066 247.609 406.406 247.702 406.744 247.882L496.749 314.482C497.001 314.661 497.166 314.922 497.158 315.263 496.984 315.345 496.984 315.345 496.982 315.43ZM304.396 293.85 291.946 403.762 381.023 469.741 482.552 425.722 494.917 315.809 405.926 249.831 304.396 293.85Z" fill="#FFFFFF" transform="matrix(1.00046 0 0 1 246 0)"/><path d="M498.996 303.147 496.003 422.025C495.994 422.368 495.815 422.706 495.469 422.869L390.888 479.573C390.541 479.736 390.199 479.727 389.861 479.547L288.361 417.29C288.023 417.111 287.86 416.764 287.868 416.422L290.947 297.546C290.955 297.203 291.134 296.865 291.481 296.703L396.059 240.084C396.406 239.922 396.748 239.93 397.086 240.109L498.587 302.367C498.839 302.545 499.004 302.805 499.082 303.15 498.996 303.147 498.996 303.147 498.996 303.147ZM292.9 298.193 289.849 415.956 390.422 477.592 493.961 421.462 497.012 303.699 396.439 242.063 292.9 298.193Z" fill="#FFFFFF" transform="matrix(1.00046 0 0 1 246 0)"/><path d="M507.341 417.163 401.843 486.861C401.582 487.026 401.151 487.101 400.813 486.921L287.442 430.368C287.104 430.188 286.938 429.928 286.863 429.498L279.075 303.248C279.083 302.906 279.262 302.568 279.526 302.317L385.109 232.621C385.37 232.456 385.8 232.381 386.138 232.56L499.51 289.114C499.849 289.293 500.013 289.554 500.088 289.984L507.789 416.317C507.866 416.662 507.686 417 507.341 417.163ZM385.744 234.692 281.118 303.726 288.848 428.861 401.206 484.876 505.833 415.755 498.103 290.621 385.744 234.692Z" fill="#FFFFFF" transform="matrix(1.00046 0 0 1 246 0)"/><path d="M519.504 410.01 414.093 493.67C413.83 493.921 413.402 493.911 413.062 493.816L287.697 444.421C287.356 444.326 287.108 443.978 287.031 443.633L267.077 310.578C266.999 310.234 267.179 309.895 267.442 309.645L372.853 225.985C373.116 225.735 373.544 225.745 373.885 225.839L499.249 275.235C499.589 275.329 499.838 275.678 499.915 276.022L519.869 409.077 519.867 409.163C519.859 409.505 519.767 409.76 519.504 410.01ZM373.665 227.803 269.127 310.799 288.937 442.738 413.198 491.764 517.736 408.768 497.926 276.829 373.665 227.803Z" fill="#FFFFFF" transform="matrix(1.00046 0 0 1 246 0)"/><path d="M531.623 401.229 427.647 499.739C427.385 499.99 427.04 500.067 426.7 499.973L289.221 459.187C288.88 459.094 288.63 458.83 288.552 458.486L255.047 319.276C254.97 318.931 255.064 318.591 255.327 318.34L359.301 219.916C359.563 219.665 359.908 219.588 360.248 219.682L497.727 260.468C498.068 260.562 498.318 260.825 498.395 261.169L531.901 400.38C531.898 400.466 531.898 400.466 531.897 400.551 531.976 400.81 531.798 401.062 531.623 401.229ZM360.198 221.736 257.099 319.411 290.377 457.417 426.752 497.833 529.851 400.158 496.66 262.069 360.198 221.736Z" fill="#FFFFFF" transform="matrix(1.00046 0 0 1 246 0)"/><path d="M543.693 390.905 442.679 504.902C442.417 505.153 442.07 505.316 441.729 505.222L292.265 474.762C291.925 474.668 291.589 474.403 291.512 474.059L243.062 329.602C242.985 329.257 242.994 328.914 243.258 328.579L344.273 214.581C344.536 214.331 344.883 214.168 345.222 214.262L494.687 244.721C495.027 244.815 495.363 245.081 495.441 245.425L543.89 389.882C543.888 389.968 543.972 390.055 543.969 390.141 543.963 390.398 543.869 390.738 543.693 390.905ZM345.425 216.493 245.118 329.566 293.167 472.9 441.525 503.076 541.832 390.003 493.783 246.669 345.425 216.493Z" fill="#FFFFFF" transform="matrix(1.00046 0 0 1 246 0)"/><path d="M555.465 378.774 458.938 508.895C458.76 509.148 458.414 509.311 457.986 509.3L296.751 490.885C296.409 490.876 296.073 490.611 295.911 490.264L231.204 341.728C231.041 341.381 231.135 341.041 231.314 340.703L327.842 210.582C328.02 210.329 328.366 210.166 328.793 210.177L490.028 228.592C490.371 228.6 490.706 228.866 490.869 229.212L555.575 377.749C555.659 377.837 555.655 378.008 555.653 378.093 555.647 378.35 555.641 378.607 555.465 378.774ZM329.255 212.328 233.435 341.525 297.654 489.023 457.691 507.323 553.513 378.041 489.295 230.544 329.255 212.328Z" fill="#FFFFFF" transform="matrix(1.00046 0 0 1 246 0)"/><path d="M566.854 364.839 476.681 511.73C476.502 512.068 476.155 512.231 475.813 512.222L303.278 507.661C302.936 507.652 302.598 507.472 302.435 507.126L220.071 355.759C219.908 355.413 219.916 355.07 220.096 354.732L310.268 207.841C310.448 207.503 310.794 207.34 311.137 207.349L483.67 211.911C484.013 211.919 484.351 212.099 484.515 212.445L566.876 363.898C566.958 364.071 566.956 364.156 567.037 364.329 567.033 364.501 566.943 364.67 566.854 364.839ZM311.687 209.332 222.052 355.294 303.84 505.705 475.262 510.239 564.895 364.363 483.107 213.952 311.687 209.332Z" fill="#FFFFFF" transform="matrix(1.00046 0 0 1 246 0)"/><path d="M577.687 349.092 495.66 513.137C495.48 513.476 495.219 513.641 494.789 513.716L311.507 524.906C311.165 524.897 310.827 524.717 310.576 524.455L209.324 371.512C209.159 371.252 209.084 370.821 209.263 370.483L291.292 206.437C291.471 206.099 291.732 205.935 292.162 205.859L475.444 194.67C475.786 194.678 476.125 194.857 476.375 195.121L577.715 347.979C577.796 348.152 577.878 348.326 577.873 348.497 577.782 348.751 577.692 348.921 577.687 349.092ZM292.797 207.93 211.308 370.962 311.985 522.862 494.152 511.731 575.641 348.699 474.964 196.799 292.797 207.93Z" fill="#FFFFFF" transform="matrix(1.00046 0 0 1 246 0)"/><path d="M587.626 331.348 515.964 512.775C515.87 513.116 515.521 513.364 515.177 513.441L321.957 542.287C321.613 542.364 321.275 542.184 321.024 541.921L199.469 389.253C199.219 388.99 199.229 388.562 199.324 388.222L270.986 206.795C271.08 206.454 271.429 206.206 271.773 206.129L464.992 177.284C465.337 177.207 465.675 177.386 465.926 177.649L587.482 330.232C587.649 330.407 587.645 330.578 587.725 330.837 587.72 331.008 587.63 331.177 587.626 331.348ZM272.666 208.12 201.373 388.443 322.181 540.151 514.281 511.536 585.491 331.125 464.683 179.418 272.666 208.12Z" fill="#FFFFFF" transform="matrix(1.00046 0 0 1 246 0)"/><path d="M596.501 311.612 537.341 510.558C537.247 510.899 536.984 511.149 536.64 511.226L334.547 559.722C334.202 559.799 333.863 559.705 333.612 559.442L190.678 408.992C190.428 408.729 190.351 408.385 190.445 408.044L249.605 209.098C249.699 208.758 249.962 208.507 250.307 208.43L452.399 159.934C452.743 159.857 453.084 159.951 453.334 160.214L596.267 310.664C596.434 310.84 596.514 311.098 596.509 311.269 596.592 311.358 596.588 311.529 596.501 311.612ZM251.291 210.167 192.501 408.009 334.683 557.67 535.654 509.489 594.444 311.647 452.263 161.986 251.291 210.167Z" fill="#FFFFFF" transform="matrix(1.00046 0 0 1 246 0)"/><path d="M604.142 289.876 559.885 506.228C559.792 506.568 559.526 506.905 559.182 506.982L349.537 577.131C349.193 577.208 348.851 577.199 348.514 576.934L183.128 430.645C182.878 430.382 182.715 430.035 182.809 429.695L227.065 213.343C227.16 213.003 227.424 212.666 227.769 212.589L437.413 142.44C437.757 142.363 438.1 142.372 438.436 142.636L603.91 288.842C604.077 289.018 604.242 289.278 604.236 289.535 604.146 289.705 604.143 289.79 604.142 289.876ZM228.925 214.331 184.867 429.575 349.418 574.986 558.026 505.241 601.995 290.08 437.447 144.582 228.925 214.331Z" fill="#FFFFFF" transform="matrix(1.00046 0 0 1 246 0)"/><path d="M610.202 266.129 583.342 499.52C583.334 499.862 583.069 500.198 582.722 500.362L367.02 594.084C366.673 594.247 366.334 594.152 365.995 593.973L177.154 454.304C176.901 454.127 176.738 453.78 176.749 453.352L203.607 220.046C203.615 219.704 203.881 219.367 204.227 219.204L419.841 125.565C420.187 125.402 420.528 125.497 420.866 125.676L609.796 265.262C610.048 265.439 610.212 265.701 610.205 266.043L610.202 266.129ZM205.471 220.862 178.812 453.06 366.73 591.936 581.394 498.616 608.054 266.418 420.133 127.628 205.471 220.862Z" fill="#FFFFFF" transform="matrix(1.00046 0 0 1 246 0)"/><path d="M614.342 240.455 607.548 490.267C607.54 490.609 607.36 490.948 607.013 491.11L387.175 610.423C386.828 610.586 386.486 610.577 386.148 610.397L173.016 479.983C172.678 479.803 172.515 479.457 172.523 479.114L179.317 229.303C179.325 228.961 179.505 228.623 179.852 228.46L399.776 109.149C400.122 108.986 400.465 108.995 400.803 109.175L613.935 239.59C614.187 239.767 614.353 240.028 614.43 240.372 614.342 240.455 614.342 240.455 614.342 240.455ZM181.356 229.952 174.592 478.565 386.709 608.442 605.594 489.62 612.359 241.007 400.241 111.13 181.356 229.952Z" fill="#FFFFFF" transform="matrix(1.00046 0 0 1 246 0)"/><path d="M616.472 212.846 632.42 478.2C632.412 478.542 632.233 478.88 631.969 479.13L410.002 625.967C409.741 626.132 409.311 626.206 408.973 626.028L171.055 507.595C170.717 507.416 170.552 507.155 170.476 506.724L154.529 241.37C154.537 241.029 154.717 240.691 154.98 240.44L376.948 93.6034C377.208 93.439 377.639 93.3637 377.977 93.5435L615.98 211.977C616.233 212.155 616.481 212.504 616.472 212.846ZM156.572 241.849 172.464 506.003 409.365 623.981 630.377 477.721 614.485 213.568 377.584 95.5888 156.572 241.849Z" fill="#FFFFFF" transform="matrix(1.00046 0 0 1 246 0)"/><path d="M657.258 464.077 435.6 640.295C435.337 640.546 434.909 640.536 434.568 640.441L171.45 536.979C171.11 536.885 170.861 536.536 170.784 536.192L129.24 256.424C129.163 256.079 129.342 255.741 129.606 255.491L351.35 79.2758C351.613 79.0253 352.041 79.0357 352.381 79.1297L615.5 182.592C615.84 182.686 616.088 183.035 616.166 183.379L657.624 463.145 657.622 463.23C657.699 463.575 657.519 463.913 657.258 464.077ZM352.074 81.1775 131.374 256.734 172.69 535.296 434.79 638.391 655.574 462.923 614.174 184.272 352.074 81.1775Z" fill="#FFFFFF" transform="matrix(1.00046 0 0 1 246 0)"/><path d="M682.627 445.77 464.059 653.15C463.796 653.4 463.452 653.477 463.112 653.383L174.629 568.055C174.289 567.961 174.038 567.698 173.961 567.354L104.043 274.732C103.966 274.388 104.059 274.047 104.323 273.797L322.801 66.5005C323.065 66.25 323.409 66.1728 323.749 66.2667L612.235 151.509C612.574 151.603 612.825 151.866 612.902 152.21L682.82 444.832C682.819 444.918 682.819 444.918 682.817 445.004 682.981 445.265 682.887 445.605 682.627 445.77ZM323.785 68.323 106.095 274.868 175.784 566.371 463.162 651.329 680.852 444.785 611.164 153.281 323.785 68.323Z" fill="#FFFFFF" transform="matrix(1.00046 0 0 1 246 0)"/><path d="M707.906 424.124 495.481 664.025C495.218 664.275 494.871 664.438 494.53 664.344L180.853 600.751C180.512 600.658 180.176 600.393 180.099 600.049L78.8484 296.469C78.7712 296.125 78.7796 295.782 79.0447 295.446L291.47 55.5451C291.734 55.2946 292.079 55.1318 292.42 55.2258L606.098 118.818C606.439 118.912 606.774 119.178 606.852 119.522L708.102 423.101C708.1 423.186 708.184 423.274 708.182 423.36 708.175 423.617 708.084 423.871 707.906 424.124ZM292.541 57.2841 80.9046 296.434 181.752 598.975 494.324 662.284 705.96 423.134 605.111 120.678 292.541 57.2841Z" fill="#FFFFFF" transform="matrix(1.00046 0 0 1 246 0)"/><path d="M732.589 398.781 529.777 672.83C529.599 673.083 529.253 673.245 528.825 673.235L190.55 634.903C190.208 634.895 189.872 634.63 189.709 634.283L54.2492 321.818C54.0864 321.471 54.1804 321.131 54.3599 320.793L257.173 46.7439C257.35 46.4914 257.697 46.3286 258.125 46.3391L596.399 84.6705C596.741 84.6788 597.078 84.9439 597.24 85.2905L732.702 397.67C732.785 397.758 732.782 397.93 732.779 398.015 732.771 398.358 732.681 398.526 732.589 398.781ZM258.501 48.4892 56.3096 321.611 191.283 632.952 528.447 671.17 730.637 398.048 595.664 86.7074 258.501 48.4892Z" fill="#FFFFFF" transform="matrix(1.00046 0 0 1 246 0)"/><path d="M756.427 369.563 566.798 678.789C566.62 679.127 566.273 679.29 565.93 679.281L203.823 669.997C203.481 669.99 203.143 669.81 202.98 669.463L30.501 350.953C30.3382 350.607 30.3466 350.265 30.5261 349.927L220.067 40.7844C220.246 40.4462 220.593 40.2834 220.936 40.2918L583.042 49.5753C583.385 49.5836 583.723 49.7632 583.886 50.1097L756.365 368.619C756.446 368.792 756.444 368.878 756.526 369.051 756.607 369.225 756.517 369.393 756.427 369.563ZM221.484 42.3606 32.5656 350.576 204.556 668.046 565.465 677.3 754.469 369.086 582.394 51.6147 221.484 42.3606Z" fill="#FFFFFF" transform="matrix(1.00046 0 0 1 246 0)"/><path d="M778.986 336.541 606.719 681.731C606.54 682.069 606.279 682.235 605.848 682.31L221.267 706.047C220.924 706.038 220.586 705.859 220.336 705.596L8.02415 384.057C7.85925 383.796 7.78412 383.366 7.96367 383.028L180.23 37.8378C180.41 37.4996 180.671 37.3347 181.101 37.2596L565.596 13.5205C565.939 13.5288 566.277 13.7084 566.528 13.9714L778.925 335.512C779.007 335.685 779.088 335.859 779.084 336.03 779.079 336.201 779.076 336.373 778.986 336.541ZM181.738 39.2448 10.0073 383.506 221.743 704.089 605.212 680.325 776.943 336.063 565.204 15.5662 181.738 39.2448Z" fill="#FFFFFF" transform="matrix(1.00046 0 0 1 246 0)"/></g></svg>